<svg version="1.0" xmlns="http://www.w3.org/2000/svg"
  width="50" height="50" viewBox="0 0 512.000000 512.000000"
  preserveAspectRatio="xMidYMid meet">

  <g transform="translate(0.000000,512.000000) scale(0.100000,-0.100000)"
    fill="currentColor" stroke="none">
    <path
      d="M2462 4970 c-23 -11 -70 -40 -104 -66 -65 -50 -104 -63 -199 -64 -97
0 -174 -38 -224 -110 -14 -19 -35 -79 -49 -133 l-24 -98 -84 -87 c-90 -94
-108 -130 -108 -219 0 -38 10 -70 46 -143 l45 -93 -7 -117 c-5 -80 -3 -128 5
-153 20 -59 67 -115 121 -142 l49 -25 -18 -42 c-11 -24 -58 -126 -105 -227
-93 -198 -101 -233 -63 -269 29 -27 45 -27 182 -2 60 10 110 18 111 17 1 -1
27 -47 58 -102 67 -117 72 -123 111 -131 54 -10 74 18 191 270 98 212 112 236
137 241 30 7 123 -13 136 -30 5 -5 41 -86 81 -180 74 -177 101 -215 148 -215
39 1 52 14 121 125 35 55 64 101 65 103 2 1 58 -9 124 -23 130 -26 161 -24
181 14 21 38 11 74 -70 260 -44 102 -83 191 -85 196 -3 6 15 25 39 42 30 21
53 49 72 87 27 56 28 59 21 181 l-7 124 41 82 c48 95 60 164 39 236 -10 38
-31 66 -97 135 l-84 87 -24 95 c-26 106 -58 162 -112 199 -50 34 -91 44 -196
51 -87 5 -89 6 -159 57 -40 29 -90 60 -112 70 -53 25 -138 24 -193 -1z m216
-204 c104 -72 108 -73 246 -85 75 -6 102 -12 116 -27 10 -10 30 -64 44 -118
31 -118 49 -148 124 -217 98 -89 100 -101 36 -231 l-46 -93 6 -127 c5 -87 3
-135 -5 -149 -6 -12 -49 -39 -97 -61 -115 -53 -138 -72 -202 -165 -30 -43 -61
-84 -70 -91 -19 -16 -63 -11 -169 17 -93 26 -132 24 -241 -9 -74 -23 -108 -25
-130 -7 -9 7 -40 47 -70 90 -64 93 -87 112 -201 165 -47 22 -90 46 -95 53 -5
8 -9 79 -9 159 l0 145 -42 82 c-60 116 -58 129 28 211 90 86 103 108 135 228
14 54 34 108 44 118 14 14 40 21 112 27 146 12 160 17 282 106 34 25 69 43 85
43 16 0 62 -25 119 -64z m457 -1416 c26 -61 45 -113 42 -116 -3 -3 -37 0 -76
6 -86 16 -104 7 -153 -75 -18 -30 -35 -55 -38 -55 -3 0 -17 29 -32 64 l-26 65
27 9 c43 15 89 60 142 138 27 41 53 74 58 74 5 0 30 -50 56 -110z m-1025 20
c48 -71 94 -109 154 -130 l44 -15 -50 -105 -49 -105 -35 63 c-50 88 -66 97
-154 82 -39 -7 -73 -10 -76 -8 -3 4 118 278 123 278 1 0 21 -27 43 -60z" />
    <path
      d="M2421 4650 c-208 -56 -360 -216 -407 -427 -61 -273 109 -560 381
-646 149 -47 332 -23 460 61 170 111 260 274 260 472 0 198 -90 361 -259 472
-122 79 -294 106 -435 68z m279 -169 c159 -61 254 -199 254 -371 0 -172 -93
-307 -254 -372 -77 -30 -203 -30 -283 1 -110 43 -195 132 -234 245 -26 74 -23
194 6 269 79 202 310 304 511 228z" />
    <path
      d="M2697 4283 c-30 -27 -93 -84 -141 -127 l-87 -79 -49 48 c-41 40 -56
49 -85 49 -54 0 -80 -34 -76 -98 1 -24 146 -172 180 -184 18 -6 36 -6 53 2 42
18 356 305 366 335 11 33 -7 85 -33 95 -42 16 -74 6 -128 -41z" />
    <path
      d="M602 4170 c-245 -65 -449 -270 -512 -516 -43 -168 -20 -358 62 -517
51 -99 171 -225 265 -280 291 -168 649 -122 880 115 139 143 205 305 205 504
0 74 -6 124 -22 180 -69 252 -269 451 -516 514 -102 26 -261 26 -362 0z m322
-155 c191 -50 351 -211 401 -402 20 -75 19 -215 -1 -284 -73 -247 -285 -409
-536 -409 -156 0 -289 54 -396 162 -106 105 -162 242 -162 393 0 156 51 279
164 391 111 112 231 162 386 163 47 1 112 -6 144 -14z" />
    <path
      d="M721 3926 c-12 -13 -39 -68 -60 -122 -29 -73 -44 -100 -57 -101 -11
-1 -64 -5 -118 -9 -92 -6 -102 -8 -128 -34 -32 -33 -38 -82 -13 -117 11 -16
141 -127 173 -149 2 -1 -11 -52 -27 -114 -28 -102 -29 -115 -16 -146 16 -40
66 -68 104 -59 14 3 55 25 91 49 36 23 76 50 90 59 25 16 27 15 115 -43 49
-33 101 -62 116 -65 39 -9 88 19 104 59 13 30 11 44 -15 146 -17 62 -29 114
-28 115 12 6 121 96 151 124 48 46 52 98 9 141 -30 29 -21 28 -231 43 -34 2
-35 4 -70 99 -45 120 -69 148 -126 148 -31 0 -47 -6 -64 -24z m144 -372 c19
-7 51 -14 72 -14 l38 0 -45 -39 c-40 -34 -44 -42 -44 -82 0 -24 3 -57 8 -73
l9 -28 -45 26 c-56 33 -90 33 -146 0 l-45 -27 7 24 c4 13 10 43 13 67 5 41 4
45 -42 88 l-48 44 37 0 c67 0 104 23 129 81 l21 53 23 -53 c18 -40 31 -55 58
-67z" />
    <path
      d="M4152 4170 c-245 -64 -444 -264 -512 -514 -24 -87 -29 -246 -11 -328
83 -365 421 -609 788 -567 291 33 541 251 613 535 27 104 27 254 0 358 -63
248 -268 453 -516 516 -102 26 -261 26 -362 0z m321 -155 c190 -49 353 -212
402 -402 19 -74 19 -203 0 -277 -38 -144 -146 -283 -273 -349 -98 -51 -162
-67 -270 -67 -417 0 -681 436 -491 812 64 127 201 238 344 279 75 22 212 24
288 4z" />
    <path
      d="M4287 3940 c-14 -11 -28 -34 -32 -50 -5 -24 -18 -36 -55 -55 -103
-52 -150 -157 -119 -268 22 -81 110 -143 239 -170 110 -23 151 -55 135 -106
-9 -28 -85 -55 -137 -48 -51 7 -88 33 -109 77 -20 42 -45 60 -81 60 -36 0 -78
-40 -78 -75 0 -68 71 -160 149 -194 40 -17 51 -27 56 -51 8 -35 48 -70 80 -70
32 0 71 34 78 68 5 23 15 32 53 47 141 54 194 199 118 322 -37 59 -115 103
-224 127 -101 21 -139 50 -125 92 14 39 68 66 120 60 31 -4 48 -14 73 -43 17
-21 39 -46 47 -55 35 -42 125 -4 125 53 0 64 -69 152 -146 184 -26 10 -36 22
-40 45 -8 35 -46 70 -79 70 -12 0 -34 -9 -48 -20z" />
    <path
      d="M2505 2645 l-25 -24 0 -301 0 -301 25 -24 c15 -16 36 -25 55 -25 19
0 40 9 55 25 l25 24 0 301 0 301 -25 24 c-15 16 -36 25 -55 25 -19 0 -40 -9
-55 -25z" />
    <path
      d="M1226 2569 c-20 -15 -26 -29 -26 -58 0 -35 12 -49 213 -249 182 -181
217 -212 243 -212 63 0 100 61 70 117 -8 15 -104 117 -214 226 -216 214 -228
221 -286 176z" />
    <path
      d="M3608 2393 c-110 -109 -206 -211 -214 -226 -30 -56 7 -117 70 -117
26 0 61 31 243 212 201 200 213 214 213 249 0 45 -36 79 -83 79 -26 0 -59 -29
-229 -197z" />
    <path
      d="M1583 1869 c-113 -19 -163 -43 -567 -278 -115 -66 -210 -121 -212
-121 -2 0 -14 19 -28 43 -49 83 -101 117 -179 117 -33 0 -67 -13 -152 -61
-163 -90 -180 -103 -205 -154 -43 -89 -46 -82 290 -675 166 -294 310 -543 319
-554 9 -10 34 -27 55 -38 65 -33 124 -22 247 47 181 101 209 131 209 224 0 43
-8 69 -34 121 l-34 66 48 27 48 27 469 -127 c458 -124 470 -127 573 -127 139
-1 195 19 386 136 842 514 1193 734 1230 773 54 57 78 133 72 224 -14 194
-176 301 -388 257 -104 -22 -199 -71 -627 -319 -205 -120 -377 -217 -383 -217
-7 0 -8 12 -3 38 17 80 4 152 -38 216 -52 77 -95 100 -290 150 -96 24 -270 78
-386 120 -270 95 -310 103 -420 85z m372 -239 c191 -67 324 -107 504 -151 63
-15 101 -56 101 -109 0 -88 -49 -128 -143 -116 -29 3 -142 31 -251 61 -109 30
-211 55 -227 55 -37 0 -79 -40 -79 -74 0 -57 30 -73 261 -135 353 -97 494
-111 631 -63 31 11 235 124 452 251 383 223 474 271 544 286 56 12 132 7 158
-10 62 -41 72 -152 18 -204 -16 -16 -320 -207 -676 -426 -697 -427 -722 -441
-833 -432 -33 2 -282 64 -553 137 l-493 132 -47 -25 c-26 -14 -61 -33 -79 -43
-17 -10 -33 -16 -36 -14 -2 3 -68 120 -147 260 -79 140 -152 269 -162 286
l-18 30 290 168 c295 171 360 203 440 215 72 12 113 2 345 -79z m-1050 -673
c160 -281 290 -521 290 -532 0 -14 -27 -35 -103 -78 -56 -32 -108 -57 -115
-54 -11 4 -589 1015 -595 1043 -3 12 200 134 223 134 6 0 141 -231 300 -513z" />
    <path d="M540 1337 c-35 -18 -48 -61 -29 -95 20 -36 78 -43 108 -13 53 53 -12
142 -79 108z" />
  </g>
</svg>