<svg version="1.0" xmlns="http://www.w3.org/2000/svg"
  width="50" height="50" viewBox="0 0 512.000000 512.000000"
  preserveAspectRatio="xMidYMid meet">

  <g transform="translate(0.000000,512.000000) scale(0.100000,-0.100000)"
    fill="currentColor" stroke="none">
    <path
      d="M221 5019 c-107 -55 -200 -108 -207 -117 -34 -44 1 -112 58 -112 36
0 393 180 421 212 9 11 17 31 17 45 0 30 -42 73 -72 73 -13 0 -110 -46 -217
-101z" />
    <path d="M2415 5095 c-30 -30 -32 -64 -4 -99 42 -53 123 -21 123 49 0 69 -71
99 -119 50z" />
    <path
      d="M4595 5095 c-30 -29 -32 -64 -6 -96 17 -21 44 -28 237 -60 226 -37
253 -37 280 -1 32 42 3 104 -53 116 -51 11 -401 66 -418 66 -9 0 -27 -11 -40
-25z" />
    <path
      d="M1258 4914 c-32 -17 -45 -55 -32 -93 8 -21 46 -43 214 -123 113 -54
212 -98 221 -98 9 0 28 9 43 21 29 23 36 73 14 102 -12 15 -367 188 -413 200
-11 4 -32 -1 -47 -9z" />
    <path
      d="M4155 4815 c-30 -30 -32 -64 -4 -99 24 -31 67 -35 97 -8 49 41 19
132 -43 132 -14 0 -37 -11 -50 -25z" />
    <path
      d="M2953 4621 c-38 -32 -114 -106 -170 -163 -113 -116 -125 -144 -80
-186 46 -44 65 -33 233 126 86 81 162 159 170 174 26 50 -8 108 -63 108 -13 0
-51 -25 -90 -59z" />
    <path
      d="M669 4521 c-17 -13 -23 -29 -23 -56 0 -70 81 -102 123 -49 28 35 26
69 -4 99 -29 30 -64 32 -96 6z" />
    <path
      d="M3617 4447 c-10 -6 -20 -28 -23 -47 -8 -48 20 -83 65 -83 63 0 98 76
56 123 -21 23 -72 27 -98 7z" />
    <path
      d="M4791 4434 c-24 -31 -26 -43 -10 -78 26 -57 120 -48 134 13 6 30 -7
69 -29 83 -26 18 -75 8 -95 -18z" />
    <path d="M2041 4214 c-28 -35 -26 -69 4 -99 48 -49 119 -19 119 50 0 70 -81
102 -123 49z" />
    <path
      d="M3255 4118 c-102 -10 -214 -68 -293 -152 -117 -125 -146 -230 -139
-491 5 -187 18 -243 77 -336 36 -55 123 -140 168 -163 29 -15 32 -21 32 -64 0
-51 -26 -117 -56 -144 -94 -84 -303 -83 -523 2 -114 44 -222 118 -329 226 -57
58 -100 94 -113 94 -26 0 -79 -52 -79 -78 0 -48 157 -207 283 -287 42 -26 77
-54 77 -61 0 -21 -33 -84 -43 -84 -17 0 -109 60 -194 127 -261 203 -443 566
-443 884 0 57 3 70 21 82 25 18 56 11 73 -17 8 -11 16 -61 19 -111 8 -115 39
-241 65 -268 26 -25 75 -26 102 -2 24 22 25 59 5 135 -9 30 -19 105 -24 167
-11 144 -34 188 -116 228 -45 22 -65 27 -108 23 -71 -6 -124 -33 -155 -81 -26
-39 -27 -47 -27 -166 1 -387 200 -770 527 -1017 117 -88 303 -182 433 -219 49
-14 93 -31 97 -38 4 -7 8 -276 8 -599 0 -560 -1 -588 -18 -597 -37 -20 -222
-51 -301 -51 -188 0 -279 54 -289 173 l-4 54 56 31 c121 69 220 209 245 346
16 89 14 339 -4 414 -24 102 -62 171 -134 243 -112 111 -231 156 -391 146
-149 -9 -276 -78 -364 -197 -85 -116 -91 -141 -91 -410 l0 -235 37 -77 c42
-88 109 -165 186 -215 57 -37 57 -38 41 -114 -14 -65 -63 -121 -127 -146 -62
-24 -221 -23 -312 1 -220 58 -384 163 -517 331 -118 150 -185 326 -202 530
-10 133 -27 170 -95 210 -116 68 -258 25 -302 -91 -14 -37 -16 -64 -11 -149
12 -195 59 -363 153 -545 105 -204 249 -365 446 -499 77 -52 236 -127 333
-156 147 -45 135 -35 135 -110 0 -78 19 -105 74 -105 52 0 76 36 76 114 0 139
-37 183 -191 228 -409 118 -717 421 -830 816 -20 70 -21 67 48 75 l42 5 20
-67 c50 -163 166 -348 295 -469 191 -179 442 -283 686 -285 63 0 125 3 136 7
19 6 23 2 28 -29 20 -103 95 -201 193 -251 51 -25 68 -29 148 -29 78 0 97 4
147 28 99 48 178 149 194 244 l6 39 127 -4 c273 -9 510 85 722 287 143 135
249 304 295 469 l17 61 46 -6 c25 -3 50 -9 54 -13 12 -10 -40 -164 -85 -255
-63 -125 -125 -212 -223 -310 -151 -152 -323 -253 -534 -314 -107 -31 -139
-51 -169 -106 -14 -25 -17 -72 -20 -302 l-4 -273 -574 0 -574 0 0 34 c0 48
-33 86 -76 86 -60 0 -74 -25 -74 -134 0 -150 -77 -136 730 -136 l677 0 21 23
c22 23 22 29 22 324 l0 302 26 20 c55 43 54 47 54 -283 0 -308 4 -347 38 -372
14 -11 154 -13 693 -14 666 0 676 0 697 20 l22 21 0 1135 0 1135 43 18 c24 10
83 31 132 46 379 115 723 474 839 877 51 176 69 386 41 456 -53 124 -207 161
-323 75 -49 -36 -63 -74 -73 -194 -23 -258 -114 -455 -290 -625 -90 -86 -146
-124 -253 -175 -128 -60 -237 -82 -371 -76 -118 5 -160 17 -215 64 -39 32 -60
78 -60 131 0 36 3 40 42 58 57 25 169 137 201 199 53 106 62 155 62 355 -1
198 -7 233 -63 345 -49 98 -191 213 -297 240 -60 15 -142 20 -210 13z m205
-171 c86 -37 164 -119 195 -207 l14 -40 -345 0 -345 0 7 23 c26 86 101 174
180 213 88 43 209 48 294 11z m1498 -280 c42 -33 -18 -356 -99 -536 -92 -203
-312 -440 -498 -535 -38 -20 -42 -17 -64 39 l-15 41 41 23 c295 169 506 502
532 841 3 47 8 95 11 108 8 37 56 47 92 19z m-1285 -224 c-1 -118 -18 -176
-68 -245 -66 -90 -164 -139 -281 -139 -139 0 -253 72 -316 198 -29 59 -32 76
-36 179 l-5 114 354 -2 354 -3 -2 -102z m-303 -574 c0 -62 36 -144 86 -194 25
-25 50 -45 56 -45 20 0 2 -98 -25 -138 -78 -119 -288 -98 -343 35 -25 59 -18
90 31 145 49 54 75 122 75 194 l0 43 60 -1 60 -1 0 -38z m-735 -290 c71 -16
116 -20 218 -17 114 3 127 1 127 -14 0 -42 45 -131 90 -181 70 -77 149 -111
255 -111 65 0 90 4 136 26 102 47 172 131 199 238 l11 45 152 0 c127 0 165 4
230 23 42 12 81 22 86 22 7 0 41 -75 41 -93 0 -3 -33 -16 -72 -27 -104 -30
-155 -57 -181 -99 l-22 -36 -3 -607 -3 -608 -294 0 c-162 0 -295 3 -295 8 0 4
23 41 51 82 137 203 215 437 226 676 7 132 -3 169 -57 218 -80 72 -196 74
-276 4 -53 -47 -66 -80 -75 -202 -17 -226 -103 -425 -253 -585 -47 -50 -157
-141 -170 -141 -3 0 -6 246 -6 548 0 301 -5 565 -10 586 -18 80 -61 116 -178
149 -45 13 -85 27 -89 30 -3 4 2 27 12 53 15 39 20 45 39 40 11 -4 62 -16 111
-27z m-693 -288 c89 -43 166 -130 193 -218 l6 -23 -340 0 c-384 0 -360 -6
-317 78 43 82 97 132 182 168 51 21 71 24 144 21 62 -3 98 -10 132 -26z
m-1698 -280 c13 -14 16 -33 14 -77 l-3 -59 -45 -6 c-28 -4 -48 -2 -52 5 -11
17 -9 115 2 137 14 25 61 25 84 0z m3184 7 c7 -7 12 -42 12 -85 l0 -73 -42 6
c-24 3 -49 7 -55 10 -19 5 -17 104 3 132 17 24 62 30 82 10z m-1280 -230 c-4
-96 -8 -122 -32 -173 -68 -151 -229 -236 -383 -205 -79 16 -146 55 -198 113
-65 72 -85 134 -85 267 l0 110 351 0 352 0 -5 -112z m-348 -538 c37 0 39 -2
45 -37 16 -102 51 -169 110 -213 30 -22 34 -31 35 -69 1 -135 -152 -213 -286
-146 -59 30 -95 79 -101 139 -5 41 -3 48 29 78 48 45 79 110 85 177 6 74 10
84 29 77 9 -3 33 -6 54 -6z m2100 -680 l0 -420 -240 0 -240 0 0 175 0 175 35
0 c72 0 104 86 49 129 -24 19 -40 21 -159 21 -119 0 -135 -2 -159 -21 -55 -43
-23 -129 49 -129 l35 0 0 -175 0 -175 -260 0 -260 0 2 291 3 292 90 46 c97 50
181 105 260 169 l50 41 373 1 372 0 0 -420z" />
    <path
      d="M4101 3952 c-14 -11 -23 -29 -23 -49 -1 -27 12 -47 80 -120 44 -48
117 -124 161 -167 88 -88 122 -100 163 -58 46 45 33 68 -127 237 -82 86 -157
160 -166 166 -27 14 -65 11 -88 -9z" />
    <path
      d="M891 3863 c-16 -14 -32 -68 -71 -232 -29 -124 -47 -223 -44 -237 13
-53 76 -69 118 -31 20 18 32 55 70 220 25 108 46 211 46 227 0 60 -72 92 -119
53z" />
    <path d="M25 3805 c-65 -64 18 -162 93 -109 16 11 22 25 22 55 0 73 -66 104
-115 54z" />
    <path
      d="M2359 3521 c-50 -40 -17 -131 48 -131 32 0 73 42 73 75 0 33 -41 75
-73 75 -14 0 -35 -8 -48 -19z" />
    <path
      d="M200 2938 c-11 -12 -20 -35 -20 -52 0 -26 24 -54 163 -193 143 -143
167 -163 195 -163 42 0 72 30 72 73 0 28 -19 51 -163 195 -142 142 -166 162
-194 162 -20 0 -40 -8 -53 -22z" />
    <path
      d="M1343 2810 c-42 -17 -56 -77 -27 -118 11 -16 25 -22 54 -22 46 0 70
26 70 76 0 48 -51 82 -97 64z" />
    <path
      d="M4760 2150 c-12 -12 -20 -33 -20 -55 0 -68 73 -100 118 -52 29 31 28
72 -3 102 -29 30 -68 32 -95 5z" />
    <path d="M832 1917 c-31 -33 -29 -80 4 -106 53 -42 114 -13 114 54 0 68 -73
100 -118 52z" />
    <path
      d="M4310 1852 c-55 -56 -48 -68 129 -216 196 -163 200 -166 231 -166 36
0 70 38 70 78 0 29 -16 45 -173 176 -95 80 -185 148 -200 151 -21 6 -32 1 -57
-23z" />
    <path d="M4766 1089 c-52 -41 -23 -129 44 -129 65 0 93 78 45 125 -30 30 -54
31 -89 4z" />
    <path
      d="M302 697 c-12 -6 -85 -88 -162 -180 -151 -182 -161 -204 -117 -245
36 -34 77 -29 118 16 43 45 228 267 252 302 23 33 21 54 -5 84 -29 31 -57 39
-86 23z" />
    <path
      d="M4425 635 c-14 -13 -25 -36 -25 -50 0 -14 11 -37 25 -50 48 -49 117
-20 117 50 0 70 -69 99 -117 50z" />
    <path
      d="M5013 453 c-19 -7 -289 -335 -297 -359 -9 -30 9 -72 38 -85 47 -22
71 -4 198 149 164 195 168 201 168 229 0 47 -61 85 -107 66z" />
    <path
      d="M669 131 c-50 -40 -17 -131 48 -131 32 0 73 42 73 75 0 33 -41 75
-73 75 -14 0 -35 -8 -48 -19z" />
  </g>
</svg>