<svg version="1.0" xmlns="http://www.w3.org/2000/svg"
  width="50" height="50" viewBox="0 0 512.000000 512.000000"
  preserveAspectRatio="xMidYMid meet">

  <g transform="translate(0.000000,512.000000) scale(0.100000,-0.100000)"
    fill="currentColor" stroke="none">
    <path
      d="M2105 4935 l-25 -24 0 -416 0 -415 -816 0 c-612 0 -827 -3 -858 -12
-55 -16 -138 -99 -154 -154 -17 -60 -17 -2648 0 -2708 16 -55 99 -138 154
-154 31 -9 318 -12 1190 -12 l1149 0 25 -83 c151 -505 654 -843 1174 -789 503
53 891 405 997 907 18 81 17 323 0 410 -8 39 -25 101 -38 139 l-23 70 0 1089
c0 826 -3 1100 -12 1131 -16 55 -99 138 -154 154 -31 9 -246 12 -858 12 l-816
0 0 415 0 416 -25 24 -24 25 -431 0 -431 0 -24 -25z m775 -655 l0 -520 -320 0
-320 0 0 520 0 520 320 0 320 0 0 -520z m-800 -495 c0 -131 1 -137 25 -160
l24 -25 431 0 431 0 24 25 c24 23 25 29 25 160 l0 135 815 0 816 0 24 -25 25
-24 0 -947 0 -946 -77 79 c-315 324 -794 429 -1208 266 -296 -117 -521 -342
-638 -638 -47 -118 -68 -224 -74 -367 l-6 -118 -1134 0 -1134 0 -24 25 -25 24
0 1311 0 1311 25 24 24 25 816 0 815 0 0 -135z m1995 -1575 c183 -49 305 -120
440 -255 136 -137 206 -259 256 -445 30 -110 33 -337 6 -444 -46 -183 -128
-328 -261 -462 -134 -133 -279 -215 -462 -261 -107 -27 -334 -24 -444 6 -186
50 -308 120 -445 256 -136 136 -206 257 -257 445 -29 109 -32 334 -5 444 44
178 128 327 257 457 151 153 330 246 535 279 96 15 288 5 380 -20z" />
    <path
      d="M2480 4707 c-49 -16 -133 -102 -148 -153 -28 -94 -8 -169 63 -239 51
-52 102 -75 165 -75 63 0 114 23 165 75 98 97 101 222 8 325 -65 72 -158 97
-253 67z m135 -172 c16 -15 25 -36 25 -55 0 -19 -9 -40 -25 -55 -49 -50 -135
-15 -135 55 0 41 39 80 80 80 19 0 40 -9 55 -25z" />
    <path d="M2400 4000 l0 -80 160 0 160 0 0 80 0 80 -160 0 -160 0 0 -80z" />
    <path
      d="M585 3415 l-25 -24 0 -671 0 -671 25 -24 24 -25 671 0 671 0 24 25
25 24 0 671 0 671 -25 24 -24 25 -671 0 -671 0 -24 -25z m1254 -577 c0 -420
-1 -442 -17 -418 -72 104 -162 186 -258 233 l-42 20 24 35 c37 53 57 136 51
202 -19 210 -233 344 -431 270 -187 -71 -264 -307 -152 -472 l24 -35 -42 -20
c-96 -47 -186 -129 -258 -233 -16 -24 -17 -2 -17 418 l-1 442 560 0 560 0 -1
-442z m-496 188 c103 -43 128 -177 48 -257 -66 -66 -159 -65 -223 2 -120 127
14 323 175 255z m52 -481 c87 -23 168 -70 230 -136 55 -58 108 -153 121 -216
l7 -33 -473 0 -472 0 6 33 c13 63 66 158 121 216 120 126 297 178 460 136z" />
    <path d="M2160 3280 l0 -80 1200 0 1200 0 0 80 0 80 -1200 0 -1200 0 0 -80z" />
    <path d="M2160 2880 l0 -80 1200 0 1200 0 0 80 0 80 -1200 0 -1200 0 0 -80z" />
    <path d="M2160 2480 l0 -80 400 0 400 0 0 80 0 80 -400 0 -400 0 0 -80z" />
    <path
      d="M4008 1323 l-408 -408 -168 168 c-92 92 -172 167 -177 167 -14 0
-105 -92 -105 -106 0 -5 94 -103 208 -217 189 -188 211 -207 242 -207 32 0 67
32 482 447 247 246 448 452 448 458 0 13 -92 105 -105 105 -6 0 -193 -183
-417 -407z" />
  </g>
</svg>