<svg version="1.0" xmlns="http://www.w3.org/2000/svg"
  width="50" height="50" viewBox="0 0 512.000000 512.000000"
  preserveAspectRatio="xMidYMid meet">

  <g transform="translate(0.000000,512.000000) scale(0.100000,-0.100000)"
    fill="currentColor" stroke="none">
    <path
      d="M1645 4948 c-27 -5 -86 -27 -131 -48 -111 -54 -200 -142 -253 -253
-47 -98 -61 -166 -61 -304 0 -89 -2 -103 -16 -103 -108 0 -224 -125 -224 -240
0 -120 116 -240 233 -240 22 0 31 -11 66 -83 30 -63 57 -101 110 -154 l71 -70
0 -100 0 -100 -151 -68 c-161 -73 -236 -117 -311 -184 -112 -99 -206 -268
-239 -423 -16 -79 -19 -137 -19 -375 l0 -283 -80 0 -80 0 0 1016 c0 769 3
1027 12 1058 16 55 99 138 154 154 23 7 67 12 98 12 l56 0 0 81 0 82 -91 -5
c-78 -5 -100 -11 -163 -42 -88 -43 -146 -102 -189 -194 l-32 -67 0 -1296 0
-1295 37 -76 c45 -91 103 -147 196 -191 l67 -32 603 -3 604 -3 -6 -37 c-3 -20
-15 -111 -26 -202 -11 -91 -23 -182 -26 -202 l-6 -38 -60 0 c-91 0 -136 -17
-193 -75 -71 -70 -91 -145 -63 -239 16 -55 99 -138 154 -154 31 -9 250 -12
876 -12 948 0 895 -4 971 80 90 100 90 220 0 320 -51 57 -108 80 -199 80 l-62
0 -6 38 c-3 20 -15 111 -26 202 -11 91 -23 182 -26 202 l-6 37 604 3 603 3 67
32 c93 44 151 100 196 191 l37 76 3 1048 2 1048 -80 0 -80 0 0 -800 0 -800
-700 0 c-385 0 -700 1 -700 3 0 1 99 250 220 552 121 302 220 560 220 573 0
53 -31 65 -269 112 -273 53 -262 55 -305 -70 -16 -47 -31 -87 -33 -89 -2 -3
-24 5 -48 17 -25 12 -57 22 -71 22 -31 0 -74 -42 -74 -72 0 -13 18 -90 38
-173 l38 -150 -34 -87 c-36 -89 -52 -103 -52 -45 0 42 -33 161 -64 231 -55
125 -172 261 -286 336 -32 20 -126 67 -209 105 l-151 68 0 100 0 99 70 70 c53
53 81 92 111 154 36 75 44 84 68 84 117 0 231 119 231 240 0 115 -116 240
-224 240 -14 0 -16 14 -16 103 0 138 -14 206 -61 304 -108 226 -359 349 -614
301z m279 -186 c36 -17 85 -49 110 -73 57 -52 113 -163 122 -239 l6 -55 -98
-1 c-115 -1 -206 -23 -342 -83 -97 -43 -212 -71 -289 -71 -76 0 -76 1 -71 137
4 107 7 125 35 185 40 84 97 147 172 186 78 42 122 52 213 48 61 -3 92 -11
142 -34z m224 -531 c11 -7 13 -49 10 -208 l-3 -199 -37 -76 c-45 -91 -103
-147 -196 -191 -61 -29 -76 -32 -162 -32 -86 0 -101 3 -162 32 -93 44 -151
100 -195 191 -37 73 -38 78 -41 206 l-4 131 98 1 c115 1 206 23 342 83 132 58
308 89 350 62z m-948 -231 c0 -65 -3 -80 -15 -80 -27 0 -65 47 -65 80 0 33 38
80 65 80 12 0 15 -15 15 -80z m1175 55 c16 -15 25 -36 25 -55 0 -33 -38 -80
-65 -80 -12 0 -15 15 -15 80 0 90 11 100 55 55z m-615 -690 c41 0 94 3 118 8
l42 7 0 -80 c0 -80 0 -80 -77 -235 -43 -85 -80 -155 -83 -155 -3 0 -40 70 -83
155 -77 155 -77 155 -77 235 l0 80 43 -7 c23 -5 76 -8 117 -8z m-245 -335 c17
-36 25 -63 19 -68 -59 -51 -116 -94 -119 -90 -6 5 -35 144 -35 164 0 13 69 52
96 53 6 1 23 -26 39 -59z m579 40 c25 -10 46 -26 46 -34 0 -20 -29 -159 -35
-164 -3 -4 -60 39 -119 90 -10 8 42 128 55 128 4 0 28 -9 53 -20z m1201 -66
c50 -9 95 -20 101 -23 8 -4 -4 -47 -39 -133 l-50 -128 -143 0 -142 0 -6 28
c-4 15 -9 34 -12 43 -3 12 2 15 26 11 53 -8 75 17 111 128 25 76 37 99 49 96
8 -3 56 -13 105 -22z m-2036 -184 c23 -115 34 -148 51 -162 42 -34 70 -24 190
72 62 50 116 88 119 84 3 -3 24 -40 46 -82 30 -57 47 -79 68 -86 50 -18 78 2
122 86 22 42 43 79 46 82 3 4 57 -34 119 -84 175 -140 199 -130 244 102 l28
148 42 -23 c22 -12 75 -56 117 -97 58 -58 85 -95 118 -160 60 -123 71 -188 71
-435 0 -203 -1 -211 -27 -277 l-26 -68 -94 0 -93 0 0 280 0 280 -80 0 -80 0 0
-280 0 -280 -480 0 -480 0 0 280 0 280 -80 0 -80 0 0 -280 0 -280 -120 0 -120
0 0 278 c0 318 8 373 69 497 22 45 64 107 95 142 56 61 178 152 183 136 2 -4
16 -73 32 -153z m1978 -272 c-3 -7 -60 -151 -128 -320 l-123 -308 -114 0 c-87
0 -113 3 -109 13 3 6 60 150 128 320 l123 307 114 0 c87 0 113 -3 109 -12z
m1323 -924 c0 -78 -5 -154 -12 -178 -16 -55 -99 -138 -154 -154 -60 -18 -3608
-18 -3668 0 -55 16 -138 99 -154 154 -7 24 -12 100 -12 178 l0 136 2000 0
2000 0 0 -136z m-1506 -541 c3 -21 15 -112 26 -203 11 -91 23 -182 26 -202 l6
-38 -552 0 -552 0 6 38 c3 20 15 111 26 202 11 91 23 182 26 203 l6 37 488 0
488 0 6 -37z m361 -628 c16 -15 25 -36 25 -55 0 -19 -9 -40 -25 -55 l-24 -25
-831 0 -831 0 -24 25 c-16 15 -25 36 -25 55 0 19 9 40 25 55 l24 25 831 0 831
0 24 -25z" />
    <path d="M4080 1520 l0 -80 80 0 80 0 0 80 0 80 -80 0 -80 0 0 -80z" />
    <path
      d="M2960 4947 c-49 -16 -133 -102 -148 -153 -9 -30 -12 -164 -12 -474 0
-310 3 -444 12 -474 16 -55 99 -138 154 -154 24 -7 100 -12 178 -12 l136 0 0
-135 c0 -131 1 -137 25 -160 15 -16 35 -25 56 -25 29 0 52 20 194 160 l161
160 400 0 c463 0 466 0 537 80 24 26 49 66 55 88 17 55 17 889 0 944 -6 22
-31 62 -55 88 -75 84 -31 80 -897 79 -524 -1 -772 -4 -796 -12z m1575 -172
l25 -24 0 -431 0 -431 -25 -24 -24 -25 -432 0 -432 0 -103 -102 -104 -102 0
78 c0 68 -3 80 -25 101 -24 25 -26 25 -215 25 -189 0 -191 0 -215 25 l-25 24
0 431 0 431 25 24 24 25 751 0 751 0 24 -25z" />
    <path d="M3200 4480 l0 -80 560 0 560 0 0 80 0 80 -560 0 -560 0 0 -80z" />
    <path d="M3200 4160 l0 -80 560 0 560 0 0 80 0 80 -560 0 -560 0 0 -80z" />
  </g>
</svg>